<mxfile host="app.diagrams.net" modified="2024-09-26T14:27:55.357Z" agent="Mozilla/5.0 (X11; Linux x86_64) AppleWebKit/537.36 (KHTML, like Gecko) Chrome/128.0.0.0 Safari/537.36" version="24.1.0" etag="d7fInvzH4CxF0HhcmxeX" type="device">
  <diagram id="DBdWhv9lM9wdDVQ6ySdX" name="Page-1">
    <mxGraphModel dx="1768" dy="1882" grid="0" gridSize="10" guides="1" tooltips="1" connect="1" arrows="1" fold="1" page="1" pageScale="1" pageWidth="583" pageHeight="827" math="0" shadow="0">
      <root>
        <mxCell id="0" />
        <mxCell id="1" parent="0" />
        <mxCell id="52x-R5pq0R9A27WMql1t-70" value="" style="ellipse;shape=cloud;whiteSpace=wrap;html=1;dashed=1;dashPattern=1 2;fontSize=10;" parent="1" vertex="1">
          <mxGeometry x="11" y="82" width="206" height="148" as="geometry" />
        </mxCell>
        <mxCell id="52x-R5pq0R9A27WMql1t-67" value="" style="ellipse;shape=cloud;whiteSpace=wrap;html=1;dashed=1;dashPattern=1 2;fontSize=18;" parent="1" vertex="1">
          <mxGeometry x="168" y="-19" width="575" height="385" as="geometry" />
        </mxCell>
        <mxCell id="52x-R5pq0R9A27WMql1t-56" value="" style="group;direction=south;dashed=1;dashPattern=1 4;" parent="1" vertex="1" connectable="0">
          <mxGeometry x="219" y="144" width="124" height="124" as="geometry" />
        </mxCell>
        <mxCell id="52x-R5pq0R9A27WMql1t-73" value="" style="group" parent="52x-R5pq0R9A27WMql1t-56" vertex="1" connectable="0">
          <mxGeometry x="-8" y="-22" width="78" height="146" as="geometry" />
        </mxCell>
        <mxCell id="52x-R5pq0R9A27WMql1t-57" value="" style="rounded=1;whiteSpace=wrap;html=1;direction=south;dashed=1;dashPattern=1 4;" parent="52x-R5pq0R9A27WMql1t-73" vertex="1">
          <mxGeometry width="78" height="146" as="geometry" />
        </mxCell>
        <mxCell id="52x-R5pq0R9A27WMql1t-61" value="LB" style="text;html=1;strokeColor=none;fillColor=none;align=center;verticalAlign=middle;whiteSpace=wrap;rounded=0;" parent="52x-R5pq0R9A27WMql1t-73" vertex="1">
          <mxGeometry x="19" width="40" height="20" as="geometry" />
        </mxCell>
        <mxCell id="52x-R5pq0R9A27WMql1t-9" value="" style="group" parent="1" vertex="1" connectable="0">
          <mxGeometry x="218" y="140" width="60" height="120" as="geometry" />
        </mxCell>
        <mxCell id="52x-R5pq0R9A27WMql1t-1" value="GW 1" style="rounded=1;whiteSpace=wrap;html=1;" parent="52x-R5pq0R9A27WMql1t-9" vertex="1">
          <mxGeometry width="60" height="30" as="geometry" />
        </mxCell>
        <mxCell id="52x-R5pq0R9A27WMql1t-2" value="GW 2" style="rounded=1;whiteSpace=wrap;html=1;" parent="52x-R5pq0R9A27WMql1t-9" vertex="1">
          <mxGeometry y="45" width="60" height="30" as="geometry" />
        </mxCell>
        <mxCell id="52x-R5pq0R9A27WMql1t-3" value="GW 3" style="rounded=1;whiteSpace=wrap;html=1;" parent="52x-R5pq0R9A27WMql1t-9" vertex="1">
          <mxGeometry y="90" width="60" height="30" as="geometry" />
        </mxCell>
        <mxCell id="52x-R5pq0R9A27WMql1t-28" value="" style="group" parent="1" vertex="1" connectable="0">
          <mxGeometry x="367" y="245" width="80" height="50" as="geometry" />
        </mxCell>
        <mxCell id="52x-R5pq0R9A27WMql1t-21" value="M 1" style="rounded=1;whiteSpace=wrap;html=1;" parent="52x-R5pq0R9A27WMql1t-28" vertex="1">
          <mxGeometry width="60" height="30" as="geometry" />
        </mxCell>
        <mxCell id="52x-R5pq0R9A27WMql1t-25" value="M 1" style="rounded=1;whiteSpace=wrap;html=1;" parent="52x-R5pq0R9A27WMql1t-28" vertex="1">
          <mxGeometry x="10" y="10" width="60" height="30" as="geometry" />
        </mxCell>
        <mxCell id="52x-R5pq0R9A27WMql1t-26" value="Worker" style="rounded=1;whiteSpace=wrap;html=1;" parent="52x-R5pq0R9A27WMql1t-28" vertex="1">
          <mxGeometry x="20" y="20" width="60" height="30" as="geometry" />
        </mxCell>
        <mxCell id="52x-R5pq0R9A27WMql1t-37" style="edgeStyle=none;rounded=0;orthogonalLoop=1;jettySize=auto;html=1;exitX=0.5;exitY=1;exitDx=0;exitDy=0;entryX=0;entryY=0.5;entryDx=0;entryDy=0;dashed=1;startArrow=none;startFill=0;endArrow=classic;endFill=1;" parent="1" source="52x-R5pq0R9A27WMql1t-30" target="52x-R5pq0R9A27WMql1t-3" edge="1">
          <mxGeometry relative="1" as="geometry" />
        </mxCell>
        <mxCell id="52x-R5pq0R9A27WMql1t-42" style="edgeStyle=none;rounded=0;orthogonalLoop=1;jettySize=auto;html=1;exitX=1;exitY=1;exitDx=0;exitDy=0;entryX=0.25;entryY=0;entryDx=0;entryDy=0;dashed=1;startArrow=none;startFill=0;endArrow=classic;endFill=1;" parent="1" source="52x-R5pq0R9A27WMql1t-31" target="52x-R5pq0R9A27WMql1t-21" edge="1">
          <mxGeometry relative="1" as="geometry" />
        </mxCell>
        <mxCell id="52x-R5pq0R9A27WMql1t-46" style="edgeStyle=none;rounded=0;orthogonalLoop=1;jettySize=auto;html=1;exitX=1;exitY=0;exitDx=0;exitDy=0;dashed=1;startArrow=none;startFill=0;endArrow=classic;endFill=1;entryX=0.5;entryY=1;entryDx=0;entryDy=0;" parent="1" source="52x-R5pq0R9A27WMql1t-31" target="52x-R5pq0R9A27WMql1t-43" edge="1">
          <mxGeometry relative="1" as="geometry">
            <mxPoint x="350" y="100" as="targetPoint" />
          </mxGeometry>
        </mxCell>
        <mxCell id="52x-R5pq0R9A27WMql1t-31" value="" style="ellipse;whiteSpace=wrap;html=1;aspect=fixed;" parent="1" vertex="1">
          <mxGeometry x="317" y="150" width="10" height="10" as="geometry" />
        </mxCell>
        <mxCell id="52x-R5pq0R9A27WMql1t-34" style="edgeStyle=orthogonalEdgeStyle;rounded=0;orthogonalLoop=1;jettySize=auto;html=1;exitX=0;exitY=0.5;exitDx=0;exitDy=0;entryX=1;entryY=0.5;entryDx=0;entryDy=0;endArrow=none;endFill=0;startArrow=classic;startFill=1;" parent="1" source="52x-R5pq0R9A27WMql1t-1" target="52x-R5pq0R9A27WMql1t-30" edge="1">
          <mxGeometry relative="1" as="geometry" />
        </mxCell>
        <mxCell id="52x-R5pq0R9A27WMql1t-36" style="edgeStyle=none;rounded=0;orthogonalLoop=1;jettySize=auto;html=1;exitX=0;exitY=0.5;exitDx=0;exitDy=0;entryX=1;entryY=1;entryDx=0;entryDy=0;startArrow=classic;startFill=1;endArrow=none;endFill=0;dashed=1;" parent="1" source="52x-R5pq0R9A27WMql1t-2" target="52x-R5pq0R9A27WMql1t-30" edge="1">
          <mxGeometry relative="1" as="geometry" />
        </mxCell>
        <mxCell id="52x-R5pq0R9A27WMql1t-38" style="edgeStyle=none;rounded=0;orthogonalLoop=1;jettySize=auto;html=1;exitX=1;exitY=0.5;exitDx=0;exitDy=0;entryX=0;entryY=0.5;entryDx=0;entryDy=0;startArrow=none;startFill=0;endArrow=classic;endFill=1;" parent="1" source="52x-R5pq0R9A27WMql1t-1" target="52x-R5pq0R9A27WMql1t-31" edge="1">
          <mxGeometry relative="1" as="geometry" />
        </mxCell>
        <mxCell id="52x-R5pq0R9A27WMql1t-39" style="edgeStyle=none;rounded=0;orthogonalLoop=1;jettySize=auto;html=1;exitX=1;exitY=0.5;exitDx=0;exitDy=0;entryX=0;entryY=1;entryDx=0;entryDy=0;startArrow=none;startFill=0;endArrow=classic;endFill=1;dashed=1;" parent="1" source="52x-R5pq0R9A27WMql1t-2" target="52x-R5pq0R9A27WMql1t-31" edge="1">
          <mxGeometry relative="1" as="geometry" />
        </mxCell>
        <mxCell id="52x-R5pq0R9A27WMql1t-40" style="edgeStyle=none;rounded=0;orthogonalLoop=1;jettySize=auto;html=1;exitX=1;exitY=0.5;exitDx=0;exitDy=0;entryX=0.5;entryY=1;entryDx=0;entryDy=0;dashed=1;startArrow=none;startFill=0;endArrow=classic;endFill=1;" parent="1" source="52x-R5pq0R9A27WMql1t-3" target="52x-R5pq0R9A27WMql1t-31" edge="1">
          <mxGeometry relative="1" as="geometry" />
        </mxCell>
        <mxCell id="52x-R5pq0R9A27WMql1t-45" value="" style="group;dashed=1;dashPattern=1 4;" parent="1" vertex="1" connectable="0">
          <mxGeometry x="375" y="46" width="69" height="124" as="geometry" />
        </mxCell>
        <mxCell id="52x-R5pq0R9A27WMql1t-10" value="" style="group" parent="52x-R5pq0R9A27WMql1t-45" vertex="1" connectable="0">
          <mxGeometry width="69" height="124" as="geometry" />
        </mxCell>
        <mxCell id="52x-R5pq0R9A27WMql1t-43" value="" style="rounded=1;whiteSpace=wrap;html=1;direction=south;dashed=1;dashPattern=1 4;" parent="52x-R5pq0R9A27WMql1t-10" vertex="1">
          <mxGeometry x="-9" y="-22" width="78" height="146" as="geometry" />
        </mxCell>
        <mxCell id="52x-R5pq0R9A27WMql1t-4" value="M 1" style="rounded=1;whiteSpace=wrap;html=1;" parent="52x-R5pq0R9A27WMql1t-10" vertex="1">
          <mxGeometry width="60" height="30" as="geometry" />
        </mxCell>
        <mxCell id="52x-R5pq0R9A27WMql1t-7" value="M 2" style="rounded=1;whiteSpace=wrap;html=1;" parent="52x-R5pq0R9A27WMql1t-10" vertex="1">
          <mxGeometry y="45" width="60" height="30" as="geometry" />
        </mxCell>
        <mxCell id="52x-R5pq0R9A27WMql1t-8" value="M 3" style="rounded=1;whiteSpace=wrap;html=1;" parent="52x-R5pq0R9A27WMql1t-10" vertex="1">
          <mxGeometry y="90" width="60" height="30" as="geometry" />
        </mxCell>
        <mxCell id="52x-R5pq0R9A27WMql1t-44" value="CP" style="text;html=1;strokeColor=none;fillColor=none;align=center;verticalAlign=middle;whiteSpace=wrap;rounded=0;" parent="52x-R5pq0R9A27WMql1t-10" vertex="1">
          <mxGeometry x="10" y="-22" width="40" height="20" as="geometry" />
        </mxCell>
        <mxCell id="52x-R5pq0R9A27WMql1t-48" style="edgeStyle=none;rounded=0;orthogonalLoop=1;jettySize=auto;html=1;exitX=1;exitY=0.5;exitDx=0;exitDy=0;entryX=0.633;entryY=-0.067;entryDx=0;entryDy=0;entryPerimeter=0;startArrow=classic;startFill=1;endArrow=classic;endFill=1;" parent="1" source="52x-R5pq0R9A27WMql1t-43" target="52x-R5pq0R9A27WMql1t-21" edge="1">
          <mxGeometry relative="1" as="geometry" />
        </mxCell>
        <mxCell id="52x-R5pq0R9A27WMql1t-50" value="" style="group" parent="1" vertex="1" connectable="0">
          <mxGeometry x="488" y="240" width="105" height="60" as="geometry" />
        </mxCell>
        <mxCell id="52x-R5pq0R9A27WMql1t-49" value="" style="group" parent="52x-R5pq0R9A27WMql1t-50" vertex="1" connectable="0">
          <mxGeometry width="105" height="60" as="geometry" />
        </mxCell>
        <mxCell id="52x-R5pq0R9A27WMql1t-18" value="" style="shape=cylinder;whiteSpace=wrap;html=1;boundedLbl=1;backgroundOutline=1;" parent="52x-R5pq0R9A27WMql1t-49" vertex="1">
          <mxGeometry width="30" height="40" as="geometry" />
        </mxCell>
        <mxCell id="52x-R5pq0R9A27WMql1t-19" value="" style="shape=cylinder;whiteSpace=wrap;html=1;boundedLbl=1;backgroundOutline=1;" parent="52x-R5pq0R9A27WMql1t-49" vertex="1">
          <mxGeometry x="10" y="10" width="30" height="40" as="geometry" />
        </mxCell>
        <mxCell id="52x-R5pq0R9A27WMql1t-20" value="" style="shape=cylinder;whiteSpace=wrap;html=1;boundedLbl=1;backgroundOutline=1;" parent="52x-R5pq0R9A27WMql1t-49" vertex="1">
          <mxGeometry x="20" y="20" width="30" height="40" as="geometry" />
        </mxCell>
        <mxCell id="52x-R5pq0R9A27WMql1t-29" value="&lt;div&gt;&lt;span&gt;Block&lt;/span&gt;&lt;br&gt;&lt;/div&gt;&lt;div&gt;Storage&lt;/div&gt;&lt;div&gt;&lt;br&gt;&lt;/div&gt;" style="text;html=1;strokeColor=none;fillColor=none;align=center;verticalAlign=middle;whiteSpace=wrap;rounded=0;" parent="52x-R5pq0R9A27WMql1t-49" vertex="1">
          <mxGeometry x="65" y="20" width="40" height="20" as="geometry" />
        </mxCell>
        <mxCell id="52x-R5pq0R9A27WMql1t-63" style="edgeStyle=none;rounded=0;orthogonalLoop=1;jettySize=auto;html=1;exitX=1;exitY=0.5;exitDx=0;exitDy=0;startArrow=none;startFill=0;endArrow=classic;endFill=1;" parent="1" source="52x-R5pq0R9A27WMql1t-26" edge="1">
          <mxGeometry relative="1" as="geometry">
            <mxPoint x="485" y="280" as="targetPoint" />
          </mxGeometry>
        </mxCell>
        <mxCell id="52x-R5pq0R9A27WMql1t-65" value="Private-VIP" style="text;html=1;strokeColor=none;fillColor=none;align=center;verticalAlign=middle;whiteSpace=wrap;rounded=0;dashed=1;dashPattern=1 4;fontSize=8;" parent="1" vertex="1">
          <mxGeometry x="288" y="122" width="53" height="20" as="geometry" />
        </mxCell>
        <mxCell id="52x-R5pq0R9A27WMql1t-66" value="Kubernetes&amp;nbsp;&lt;span style=&quot;background-color: initial;&quot;&gt;Cluster&lt;/span&gt;" style="text;html=1;strokeColor=none;fillColor=none;align=center;verticalAlign=middle;whiteSpace=wrap;rounded=0;dashed=1;dashPattern=1 4;fontSize=18;" parent="1" vertex="1">
          <mxGeometry x="461" y="115" width="177" height="88" as="geometry" />
        </mxCell>
        <mxCell id="52x-R5pq0R9A27WMql1t-68" value="Private&amp;nbsp; Network" style="text;html=1;strokeColor=none;fillColor=none;align=center;verticalAlign=middle;whiteSpace=wrap;rounded=0;dashed=1;dashPattern=1 4;fontSize=10;" parent="1" vertex="1">
          <mxGeometry x="570" y="57" width="40" height="20" as="geometry" />
        </mxCell>
        <mxCell id="52x-R5pq0R9A27WMql1t-69" style="edgeStyle=none;rounded=0;orthogonalLoop=1;jettySize=auto;html=1;exitX=0.5;exitY=0;exitDx=0;exitDy=0;startArrow=none;startFill=0;endArrow=classic;endFill=1;fontSize=10;" parent="1" source="52x-R5pq0R9A27WMql1t-68" target="52x-R5pq0R9A27WMql1t-68" edge="1">
          <mxGeometry relative="1" as="geometry" />
        </mxCell>
        <mxCell id="52x-R5pq0R9A27WMql1t-72" value="" style="group" parent="1" vertex="1" connectable="0">
          <mxGeometry x="46" y="122" width="155.5" height="88" as="geometry" />
        </mxCell>
        <mxCell id="52x-R5pq0R9A27WMql1t-30" value="" style="ellipse;whiteSpace=wrap;html=1;aspect=fixed;" parent="52x-R5pq0R9A27WMql1t-72" vertex="1">
          <mxGeometry x="124" y="28" width="10" height="10" as="geometry" />
        </mxCell>
        <mxCell id="52x-R5pq0R9A27WMql1t-54" style="edgeStyle=none;rounded=0;orthogonalLoop=1;jettySize=auto;html=1;exitX=0.5;exitY=0.5;exitDx=0;exitDy=0;exitPerimeter=0;startArrow=none;startFill=0;endArrow=classic;endFill=1;" parent="52x-R5pq0R9A27WMql1t-72" source="52x-R5pq0R9A27WMql1t-51" edge="1">
          <mxGeometry relative="1" as="geometry">
            <mxPoint x="120" y="33" as="targetPoint" />
          </mxGeometry>
        </mxCell>
        <mxCell id="52x-R5pq0R9A27WMql1t-51" value="" style="shape=umlActor;verticalLabelPosition=bottom;labelBackgroundColor=#ffffff;verticalAlign=top;html=1;outlineConnect=0;" parent="52x-R5pq0R9A27WMql1t-72" vertex="1">
          <mxGeometry y="3" width="30" height="60" as="geometry" />
        </mxCell>
        <mxCell id="52x-R5pq0R9A27WMql1t-55" value="&lt;div style=&quot;font-size: 8px&quot;&gt;SSH / wireguard&amp;nbsp;&lt;span&gt;/ IPSec&lt;/span&gt;&lt;/div&gt;" style="text;html=1;strokeColor=none;fillColor=none;align=center;verticalAlign=middle;whiteSpace=wrap;rounded=0;fontSize=8;" parent="52x-R5pq0R9A27WMql1t-72" vertex="1">
          <mxGeometry x="39" y="8" width="51" height="20" as="geometry" />
        </mxCell>
        <mxCell id="52x-R5pq0R9A27WMql1t-64" value="Public-VIP / K8s-Endpoint" style="text;html=1;strokeColor=none;fillColor=none;align=center;verticalAlign=middle;whiteSpace=wrap;rounded=0;dashed=1;dashPattern=1 4;fontSize=8;" parent="52x-R5pq0R9A27WMql1t-72" vertex="1">
          <mxGeometry x="102.5" width="53" height="20" as="geometry" />
        </mxCell>
        <mxCell id="52x-R5pq0R9A27WMql1t-71" value="&lt;div&gt;Internet&lt;/div&gt;" style="text;html=1;strokeColor=none;fillColor=none;align=center;verticalAlign=middle;whiteSpace=wrap;rounded=0;dashed=1;dashPattern=1 4;fontSize=10;" parent="52x-R5pq0R9A27WMql1t-72" vertex="1">
          <mxGeometry x="50" y="68" width="40" height="20" as="geometry" />
        </mxCell>
      </root>
    </mxGraphModel>
  </diagram>
</mxfile>
